<svg xmlns:xlink="http://www.w3.org/1999/xlink" style="overflow: hidden; position: relative; top: -0.833313px;" xmlns="http://www.w3.org/2000/svg" width="925.3999938964844" version="1.1" height="1027"><defs><path id="raphael-marker-block" d="M5,0 0,2.5 5,5z" stroke-linecap="round"></path><marker refY="2.5" refX="2.5" orient="auto" markerWidth="5" markerHeight="5" id="raphael-marker-endblock55"><use stroke="none" fill="#000" stroke-width="1.0000" transform="rotate(180 2.5 2.5) scale(1,1)" xlink:href="#raphael-marker-block"></use></marker></defs><rect stroke-width="2" style="" stroke="#000000" fill="none" ry="0" rx="0" r="0" height="29" width="252" y="10" x="10"></rect><rect style="" stroke="none" fill="#ffffff" ry="0" rx="0" r="0" height="19" width="242" y="15" x="15"></rect><text font-family="Andale Mono, monospace" font-size="16px" fill="#000000" stroke="none" font="10px &quot;Arial&quot;" text-anchor="middle" y="24.5" x="136" style="text-anchor: middle; font: 16px Andale Mono,monospace;"><tspan dy="5.5">Terasender worker process</tspan></text><rect stroke-width="2" style="" stroke="#000000" fill="none" ry="0" rx="0" r="0" height="39" width="79.5999984741211" y="49" x="86.60000228881836"></rect><rect style="" stroke="none" fill="#ffffff" ry="0" rx="0" r="0" height="19" width="59.599998474121094" y="59" x="96.5999984741211"></rect><text font-family="Andale Mono, monospace" font-size="16px" fill="#000000" stroke="none" font="10px &quot;Arial&quot;" text-anchor="middle" y="68.5" x="126.4000015258789" style="text-anchor: middle; font: 16px Andale Mono,monospace;"><tspan dy="5.5">Client</tspan></text><rect stroke-width="2" style="" stroke="#000000" fill="none" ry="0" rx="0" r="0" height="39" width="79.5999984741211" y="968" x="86.60000228881836"></rect><rect style="" stroke="none" fill="#ffffff" ry="0" rx="0" r="0" height="19" width="59.599998474121094" y="978" x="96.5999984741211"></rect><text font-family="Andale Mono, monospace" font-size="16px" fill="#000000" stroke="none" font="10px &quot;Arial&quot;" text-anchor="middle" y="987.5" x="126.4000015258789" style="text-anchor: middle; font: 16px Andale Mono,monospace;"><tspan dy="5.5">Client</tspan></text><path stroke-width="2" d="M126.4000015258789,88L126.4000015258789,968" stroke="#000000" fill="none" style=""></path><rect stroke-width="2" style="" stroke="#000000" fill="none" ry="0" rx="0" r="0" height="39" width="175.60000610351562" y="49" x="223.79999542236328"></rect><rect style="" stroke="none" fill="#ffffff" ry="0" rx="0" r="0" height="19" width="155.60000610351562" y="59" x="233.8000030517578"></rect><text font-family="Andale Mono, monospace" font-size="16px" fill="#000000" stroke="none" font="10px &quot;Arial&quot;" text-anchor="middle" y="68.5" x="311.5999984741211" style="text-anchor: middle; font: 16px Andale Mono,monospace;"><tspan dy="5.5">TerasenderDriver</tspan></text><rect stroke-width="2" style="" stroke="#000000" fill="none" ry="0" rx="0" r="0" height="39" width="175.60000610351562" y="968" x="223.79999542236328"></rect><rect style="" stroke="none" fill="#ffffff" ry="0" rx="0" r="0" height="19" width="155.60000610351562" y="978" x="233.8000030517578"></rect><text font-family="Andale Mono, monospace" font-size="16px" fill="#000000" stroke="none" font="10px &quot;Arial&quot;" text-anchor="middle" y="987.5" x="311.5999984741211" style="text-anchor: middle; font: 16px Andale Mono,monospace;"><tspan dy="5.5">TerasenderDriver</tspan></text><path stroke-width="2" d="M311.5999984741211,88L311.5999984741211,968" stroke="#000000" fill="none" style=""></path><rect stroke-width="2" style="" stroke="#000000" fill="none" ry="0" rx="0" r="0" height="39" width="175.60000610351562" y="49" x="620.1999893188477"></rect><rect style="" stroke="none" fill="#ffffff" ry="0" rx="0" r="0" height="19" width="155.60000610351562" y="59" x="630.2000122070312"></rect><text font-family="Andale Mono, monospace" font-size="16px" fill="#000000" stroke="none" font="10px &quot;Arial&quot;" text-anchor="middle" y="68.5" x="707.9999923706055" style="text-anchor: middle; font: 16px Andale Mono,monospace;"><tspan dy="5.5">TerasenderWorker</tspan></text><rect stroke-width="2" style="" stroke="#000000" fill="none" ry="0" rx="0" r="0" height="39" width="175.60000610351562" y="968" x="620.1999893188477"></rect><rect style="" stroke="none" fill="#ffffff" ry="0" rx="0" r="0" height="19" width="155.60000610351562" y="978" x="630.2000122070312"></rect><text font-family="Andale Mono, monospace" font-size="16px" fill="#000000" stroke="none" font="10px &quot;Arial&quot;" text-anchor="middle" y="987.5" x="707.9999923706055" style="text-anchor: middle; font: 16px Andale Mono,monospace;"><tspan dy="5.5">TerasenderWorker</tspan></text><path stroke-width="2" d="M707.9999923706055,88L707.9999923706055,968" stroke="#000000" fill="none" style=""></path><rect stroke-width="2" style="" stroke="#000000" fill="none" ry="0" rx="0" r="0" height="39" width="79.5999984741211" y="49" x="815.7999954223633"></rect><rect style="" stroke="none" fill="#ffffff" ry="0" rx="0" r="0" height="19" width="59.599998474121094" y="59" x="825.7999877929688"></rect><text font-family="Andale Mono, monospace" font-size="16px" fill="#000000" stroke="none" font="10px &quot;Arial&quot;" text-anchor="middle" y="68.5" x="855.5999946594238" style="text-anchor: middle; font: 16px Andale Mono,monospace;"><tspan dy="5.5">Server</tspan></text><rect stroke-width="2" style="" stroke="#000000" fill="none" ry="0" rx="0" r="0" height="39" width="79.5999984741211" y="968" x="815.7999954223633"></rect><rect style="" stroke="none" fill="#ffffff" ry="0" rx="0" r="0" height="19" width="59.599998474121094" y="978" x="825.7999877929688"></rect><text font-family="Andale Mono, monospace" font-size="16px" fill="#000000" stroke="none" font="10px &quot;Arial&quot;" text-anchor="middle" y="987.5" x="855.5999946594238" style="text-anchor: middle; font: 16px Andale Mono,monospace;"><tspan dy="5.5">Server</tspan></text><path stroke-width="2" d="M855.5999946594238,88L855.5999946594238,968" stroke="#000000" fill="none" style=""></path><rect style="" stroke="none" fill="#ffffff" ry="0" rx="0" r="0" height="19" width="117.19999694824219" y="103.5" x="451.1999816894531"></rect><text font-family="Andale Mono, monospace" font-size="16px" fill="#000000" stroke="none" font="10px &quot;Arial&quot;" text-anchor="middle" y="113" x="509.7999954223633" style="text-anchor: middle; font: 16px Andale Mono,monospace;"><tspan dy="5.5">Requests job</tspan></text><path stroke-dasharray="6,2" marker-end="url(#raphael-marker-endblock55)" stroke-width="2" d="M707.9999923706055,127C707.9999923706055,127,362.4084752902331,127,316.5939748569709,127" stroke="#000000" fill="none" style=""></path><rect style="" stroke="none" fill="#ffffff" ry="0" rx="0" r="0" height="19" width="299.6000061035156" y="142.5" x="360"></rect><text font-family="Andale Mono, monospace" font-size="16px" fill="#000000" stroke="none" font="10px &quot;Arial&quot;" text-anchor="middle" y="152" x="509.7999954223633" style="text-anchor: middle; font: 16px Andale Mono,monospace;"><tspan dy="5.5">Job (file and chunk boundaries)</tspan></text><path stroke-dasharray="6,2" marker-end="url(#raphael-marker-endblock55)" stroke-width="2" d="M311.5999984741211,166C311.5999984741211,166,657.1915155544934,166,703.0060159877557,166" stroke="#000000" fill="none" style=""></path><rect style="" stroke="none" fill="#ffffff" ry="0" rx="0" r="0" height="19" width="50" y="181.5" x="756.7999877929688"></rect><text font-family="Andale Mono, monospace" font-size="16px" fill="#000000" stroke="none" font="10px &quot;Arial&quot;" text-anchor="middle" y="191" x="781.7999935150146" style="text-anchor: middle; font: 16px Andale Mono,monospace;"><tspan dy="5.5">Chunk</tspan></text><path stroke-dasharray="0" marker-end="url(#raphael-marker-endblock55)" stroke-width="2" d="M707.9999923706055,205C707.9999923706055,205,824.8216071124443,205,850.6045025535142,205" stroke="#000000" fill="none" style=""></path><rect style="" stroke="none" fill="#ffffff" ry="0" rx="0" r="0" height="19" width="21.200000762939453" y="220.5" x="771.2000122070312"></rect><text font-family="Andale Mono, monospace" font-size="16px" fill="#000000" stroke="none" font="10px &quot;Arial&quot;" text-anchor="middle" y="230" x="781.7999935150146" style="text-anchor: middle; font: 16px Andale Mono,monospace;"><tspan dy="5.5">Ok</tspan></text><path stroke-dasharray="0" marker-end="url(#raphael-marker-endblock55)" stroke-width="2" d="M855.5999946594238,244C855.5999946594238,244,738.778379917585,244,712.995484476515,244" stroke="#000000" fill="none" style=""></path><rect stroke-width="2" style="" stroke="#000000" fill="none" ry="0" rx="0" r="0" height="29" width="40.79999923706055" y="264" x="291.1999988555908"></rect><rect style="" stroke="none" fill="#ffffff" ry="0" rx="0" r="0" height="19" width="30.799999237060547" y="269" x="296.20001220703125"></rect><text font-family="Andale Mono, monospace" font-size="16px" fill="#000000" stroke="none" font="10px &quot;Arial&quot;" text-anchor="middle" y="278.5" x="311.5999984741211" style="text-anchor: middle; font: 16px Andale Mono,monospace;"><tspan dy="5.5">...</tspan></text><rect style="" stroke="none" fill="#ffffff" ry="0" rx="0" r="0" height="19" width="117.19999694824219" y="308.5" x="451.1999816894531"></rect><text font-family="Andale Mono, monospace" font-size="16px" fill="#000000" stroke="none" font="10px &quot;Arial&quot;" text-anchor="middle" y="318" x="509.7999954223633" style="text-anchor: middle; font: 16px Andale Mono,monospace;"><tspan dy="5.5">Requests job</tspan></text><path stroke-dasharray="6,2" marker-end="url(#raphael-marker-endblock55)" stroke-width="2" d="M707.9999923706055,332C707.9999923706055,332,362.4084752902331,332,316.5939748569709,332" stroke="#000000" fill="none" style=""></path><rect stroke-width="2" style="" stroke="#000000" fill="none" ry="0" rx="0" r="0" height="29" width="98.4000015258789" y="352" x="262.39999771118164"></rect><rect style="" stroke="none" fill="#ffffff" ry="0" rx="0" r="0" height="19" width="88.4000015258789" y="357" x="267.3999938964844"></rect><text font-family="Andale Mono, monospace" font-size="16px" fill="#000000" stroke="none" font="10px &quot;Arial&quot;" text-anchor="middle" y="366.5" x="311.5999984741211" style="text-anchor: middle; font: 16px Andale Mono,monospace;"><tspan dy="5.5">File done</tspan></text><rect style="" stroke="none" fill="#ffffff" ry="0" rx="0" r="0" height="19" width="126.80000305175781" y="396.5" x="155.60000610351562"></rect><text font-family="Andale Mono, monospace" font-size="16px" fill="#000000" stroke="none" font="10px &quot;Arial&quot;" text-anchor="middle" y="406" x="219" style="text-anchor: middle; font: 16px Andale Mono,monospace;"><tspan dy="5.5">File complete</tspan></text><path stroke-dasharray="6,2" marker-end="url(#raphael-marker-endblock55)" stroke-width="2" d="M311.5999984741211,420C311.5999984741211,420,160.96882429380275,420,131.40157233067387,420" stroke="#000000" fill="none" style=""></path><rect stroke-width="2" style="" stroke="#000000" fill="none" ry="0" rx="0" r="0" height="29" width="194.39999389648438" y="440" x="29.20000457763672"></rect><rect style="" stroke="none" fill="#ffffff" ry="0" rx="0" r="0" height="19" width="184.39999389648438" y="445" x="34.20000076293945"></rect><text font-family="Andale Mono, monospace" font-size="16px" fill="#000000" stroke="none" font="10px &quot;Arial&quot;" text-anchor="middle" y="454.5" x="126.4000015258789" style="text-anchor: middle; font: 16px Andale Mono,monospace;"><tspan dy="5.5">See file completion</tspan></text><rect stroke-width="2" style="" stroke="#000000" fill="none" ry="0" rx="0" r="0" height="29" width="213.60000610351562" y="489" x="204.79999542236328"></rect><rect style="" stroke="none" fill="#ffffff" ry="0" rx="0" r="0" height="19" width="203.60000610351562" y="494" x="209.8000030517578"></rect><text font-family="Andale Mono, monospace" font-size="16px" fill="#000000" stroke="none" font="10px &quot;Arial&quot;" text-anchor="middle" y="503.5" x="311.5999984741211" style="text-anchor: middle; font: 16px Andale Mono,monospace;"><tspan dy="5.5">If all files complete</tspan></text><rect style="" stroke="none" fill="#ffffff" ry="0" rx="0" r="0" height="19" width="165.1999969482422" y="533.5" x="136.39999389648438"></rect><text font-family="Andale Mono, monospace" font-size="16px" fill="#000000" stroke="none" font="10px &quot;Arial&quot;" text-anchor="middle" y="543" x="219" style="text-anchor: middle; font: 16px Andale Mono,monospace;"><tspan dy="5.5">Transfer complete</tspan></text><path stroke-dasharray="6,2" marker-end="url(#raphael-marker-endblock55)" stroke-width="2" d="M311.5999984741211,557C311.5999984741211,557,160.96882429380275,557,131.40157233067387,557" stroke="#000000" fill="none" style=""></path><rect stroke-width="2" style="" stroke="#000000" fill="none" ry="0" rx="0" r="0" height="29" width="232.8000030517578" y="577" x="10"></rect><rect style="" stroke="none" fill="#ffffff" ry="0" rx="0" r="0" height="19" width="222.8000030517578" y="582" x="15.000001907348633"></rect><text font-family="Andale Mono, monospace" font-size="16px" fill="#000000" stroke="none" font="10px &quot;Arial&quot;" text-anchor="middle" y="591.5" x="126.4000015258789" style="text-anchor: middle; font: 16px Andale Mono,monospace;"><tspan dy="5.5">See transfer completion</tspan></text><rect stroke-width="2" style="" stroke="#000000" fill="none" ry="0" rx="0" r="0" height="29" width="309.6000061035156" y="626" x="156.79999542236328"></rect><rect style="" stroke="none" fill="#ffffff" ry="0" rx="0" r="0" height="19" width="299.6000061035156" y="631" x="161.8000030517578"></rect><text font-family="Andale Mono, monospace" font-size="16px" fill="#000000" stroke="none" font="10px &quot;Arial&quot;" text-anchor="middle" y="640.5" x="311.5999984741211" style="text-anchor: middle; font: 16px Andale Mono,monospace;"><tspan dy="5.5">(may happend if multiple files)</tspan></text><rect style="" stroke="none" fill="#ffffff" ry="0" rx="0" r="0" height="19" width="376.3999938964844" y="670.5" x="321.5999755859375"></rect><text font-family="Andale Mono, monospace" font-size="16px" fill="#000000" stroke="none" font="10px &quot;Arial&quot;" text-anchor="middle" y="680" x="509.7999954223633" style="text-anchor: middle; font: 16px Andale Mono,monospace;"><tspan dy="5.5">Switch to new file and chunk boundaries</tspan></text><path stroke-dasharray="6,2" marker-end="url(#raphael-marker-endblock55)" stroke-width="2" d="M311.5999984741211,694C311.5999984741211,694,657.1915155544934,694,703.0060159877557,694" stroke="#000000" fill="none" style=""></path><rect style="" stroke="none" fill="#ffffff" ry="0" rx="0" r="0" height="19" width="50" y="709.5" x="756.7999877929688"></rect><text font-family="Andale Mono, monospace" font-size="16px" fill="#000000" stroke="none" font="10px &quot;Arial&quot;" text-anchor="middle" y="719" x="781.7999935150146" style="text-anchor: middle; font: 16px Andale Mono,monospace;"><tspan dy="5.5">Chunk</tspan></text><path stroke-dasharray="0" marker-end="url(#raphael-marker-endblock55)" stroke-width="2" d="M707.9999923706055,733C707.9999923706055,733,824.8216071124443,733,850.6045025535142,733" stroke="#000000" fill="none" style=""></path><rect style="" stroke="none" fill="#ffffff" ry="0" rx="0" r="0" height="19" width="21.200000762939453" y="748.5" x="771.2000122070312"></rect><text font-family="Andale Mono, monospace" font-size="16px" fill="#000000" stroke="none" font="10px &quot;Arial&quot;" text-anchor="middle" y="758" x="781.7999935150146" style="text-anchor: middle; font: 16px Andale Mono,monospace;"><tspan dy="5.5">Ok</tspan></text><path stroke-dasharray="0" marker-end="url(#raphael-marker-endblock55)" stroke-width="2" d="M855.5999946594238,772C855.5999946594238,772,738.778379917585,772,712.995484476515,772" stroke="#000000" fill="none" style=""></path><rect stroke-width="2" style="" stroke="#000000" fill="none" ry="0" rx="0" r="0" height="29" width="40.79999923706055" y="792" x="291.1999988555908"></rect><rect style="" stroke="none" fill="#ffffff" ry="0" rx="0" r="0" height="19" width="30.799999237060547" y="797" x="296.20001220703125"></rect><text font-family="Andale Mono, monospace" font-size="16px" fill="#000000" stroke="none" font="10px &quot;Arial&quot;" text-anchor="middle" y="806.5" x="311.5999984741211" style="text-anchor: middle; font: 16px Andale Mono,monospace;"><tspan dy="5.5">...</tspan></text><rect style="" stroke="none" fill="#ffffff" ry="0" rx="0" r="0" height="19" width="117.19999694824219" y="836.5" x="451.1999816894531"></rect><text font-family="Andale Mono, monospace" font-size="16px" fill="#000000" stroke="none" font="10px &quot;Arial&quot;" text-anchor="middle" y="846" x="509.7999954223633" style="text-anchor: middle; font: 16px Andale Mono,monospace;"><tspan dy="5.5">Requests job</tspan></text><path stroke-dasharray="6,2" marker-end="url(#raphael-marker-endblock55)" stroke-width="2" d="M707.9999923706055,860C707.9999923706055,860,362.4084752902331,860,316.5939748569709,860" stroke="#000000" fill="none" style=""></path><rect style="" stroke="none" fill="#ffffff" ry="0" rx="0" r="0" height="19" width="126.80000305175781" y="875.5" x="446.3999938964844"></rect><text font-family="Andale Mono, monospace" font-size="16px" fill="#000000" stroke="none" font="10px &quot;Arial&quot;" text-anchor="middle" y="885" x="509.7999954223633" style="text-anchor: middle; font: 16px Andale Mono,monospace;"><tspan dy="5.5">Nothing to do</tspan></text><path stroke-dasharray="6,2" marker-end="url(#raphael-marker-endblock55)" stroke-width="2" d="M311.5999984741211,899C311.5999984741211,899,657.1915155544934,899,703.0060159877557,899" stroke="#000000" fill="none" style=""></path><rect stroke-width="2" style="" stroke="#000000" fill="none" ry="0" rx="0" r="0" height="29" width="50.400001525878906" y="919" x="682.799991607666"></rect><rect style="" stroke="none" fill="#ffffff" ry="0" rx="0" r="0" height="19" width="40.400001525878906" y="924" x="687.7999877929688"></rect><text font-family="Andale Mono, monospace" font-size="16px" fill="#000000" stroke="none" font="10px &quot;Arial&quot;" text-anchor="middle" y="933.5" x="707.9999923706055" style="text-anchor: middle; font: 16px Andale Mono,monospace;"><tspan dy="5.5">Dies</tspan></text></svg>