<svg xmlns:xlink="http://www.w3.org/1999/xlink" style="overflow: hidden; position: relative; top: -0.43335px;" xmlns="http://www.w3.org/2000/svg" width="426.3999938964844" version="1.1" height="294"><defs><path id="raphael-marker-block" d="M5,0 0,2.5 5,5z" stroke-linecap="round"></path><marker refY="2.5" refX="2.5" orient="auto" markerWidth="5" markerHeight="5" id="raphael-marker-endblock55"><use stroke="none" fill="#000" stroke-width="1.0000" transform="rotate(180 2.5 2.5) scale(1,1)" xlink:href="#raphael-marker-block"></use></marker></defs><rect stroke-width="2" style="" stroke="#000000" fill="none" ry="0" rx="0" r="0" height="29" width="194.39999389648438" y="10" x="10"></rect><rect style="" stroke="none" fill="#ffffff" ry="0" rx="0" r="0" height="19" width="184.39999389648438" y="15" x="14.99999713897705"></rect><text font-family="Andale Mono, monospace" font-size="16px" fill="#000000" stroke="none" font="10px &quot;Arial&quot;" text-anchor="middle" y="24.5" x="107.19999694824219" style="text-anchor: middle; font: 16px Andale Mono,monospace;"><tspan dy="5.5">Transfer completion</tspan></text><rect stroke-width="2" style="" stroke="#000000" fill="none" ry="0" rx="0" r="0" height="39" width="79.5999984741211" y="49" x="10"></rect><rect style="" stroke="none" fill="#ffffff" ry="0" rx="0" r="0" height="19" width="59.599998474121094" y="59" x="20"></rect><text font-family="Andale Mono, monospace" font-size="16px" fill="#000000" stroke="none" font="10px &quot;Arial&quot;" text-anchor="middle" y="68.5" x="49.79999923706055" style="text-anchor: middle; font: 16px Andale Mono,monospace;"><tspan dy="5.5">Client</tspan></text><rect stroke-width="2" style="" stroke="#000000" fill="none" ry="0" rx="0" r="0" height="39" width="79.5999984741211" y="235" x="10"></rect><rect style="" stroke="none" fill="#ffffff" ry="0" rx="0" r="0" height="19" width="59.599998474121094" y="245" x="20"></rect><text font-family="Andale Mono, monospace" font-size="16px" fill="#000000" stroke="none" font="10px &quot;Arial&quot;" text-anchor="middle" y="254.5" x="49.79999923706055" style="text-anchor: middle; font: 16px Andale Mono,monospace;"><tspan dy="5.5">Client</tspan></text><path stroke-width="2" d="M49.79999923706055,88L49.79999923706055,235" stroke="#000000" fill="none" style=""></path><rect stroke-width="2" style="" stroke="#000000" fill="none" ry="0" rx="0" r="0" height="39" width="79.5999984741211" y="49" x="195.1999969482422"></rect><rect style="" stroke="none" fill="#ffffff" ry="0" rx="0" r="0" height="19" width="59.599998474121094" y="59" x="205.1999969482422"></rect><text font-family="Andale Mono, monospace" font-size="16px" fill="#000000" stroke="none" font="10px &quot;Arial&quot;" text-anchor="middle" y="68.5" x="234.99999618530273" style="text-anchor: middle; font: 16px Andale Mono,monospace;"><tspan dy="5.5">Server</tspan></text><rect stroke-width="2" style="" stroke="#000000" fill="none" ry="0" rx="0" r="0" height="39" width="79.5999984741211" y="235" x="195.1999969482422"></rect><rect style="" stroke="none" fill="#ffffff" ry="0" rx="0" r="0" height="19" width="59.599998474121094" y="245" x="205.1999969482422"></rect><text font-family="Andale Mono, monospace" font-size="16px" fill="#000000" stroke="none" font="10px &quot;Arial&quot;" text-anchor="middle" y="254.5" x="234.99999618530273" style="text-anchor: middle; font: 16px Andale Mono,monospace;"><tspan dy="5.5">Server</tspan></text><path stroke-width="2" d="M234.99999618530273,88L234.99999618530273,235" stroke="#000000" fill="none" style=""></path><rect style="" stroke="none" fill="#ffffff" ry="0" rx="0" r="0" height="19" width="165.1999969482422" y="103.5" x="59.79999542236328"></rect><text font-family="Andale Mono, monospace" font-size="16px" fill="#000000" stroke="none" font="10px &quot;Arial&quot;" text-anchor="middle" y="113" x="142.39999771118164" style="text-anchor: middle; font: 16px Andale Mono,monospace;"><tspan dy="5.5">Transfer complete</tspan></text><path stroke-dasharray="0" marker-end="url(#raphael-marker-endblock55)" stroke-width="2" d="M49.79999923706055,127C49.79999923706055,127,200.4311734173789,127,229.99842538050777,127" stroke="#000000" fill="none" style=""></path><rect stroke-width="2" style="" stroke="#000000" fill="none" ry="0" rx="0" r="0" height="29" width="223.1999969482422" y="147" x="123.39999771118164"></rect><rect style="" stroke="none" fill="#ffffff" ry="0" rx="0" r="0" height="19" width="213.1999969482422" y="152" x="128.39999389648438"></rect><text font-family="Andale Mono, monospace" font-size="16px" fill="#000000" stroke="none" font="10px &quot;Arial&quot;" text-anchor="middle" y="161.5" x="234.99999618530273" style="text-anchor: middle; font: 16px Andale Mono,monospace;"><tspan dy="5.5">Checks all files sizes</tspan></text><rect style="" stroke="none" fill="#ffffff" ry="0" rx="0" r="0" height="19" width="21.200000762939453" y="191.5" x="131.79998779296875"></rect><text font-family="Andale Mono, monospace" font-size="16px" fill="#000000" stroke="none" font="10px &quot;Arial&quot;" text-anchor="middle" y="201" x="142.39999771118164" style="text-anchor: middle; font: 16px Andale Mono,monospace;"><tspan dy="5.5">Ok</tspan></text><path stroke-dasharray="0" marker-end="url(#raphael-marker-endblock55)" stroke-width="2" d="M234.99999618530273,215C234.99999618530273,215,84.3688220049844,215,54.8015700418555,215" stroke="#000000" fill="none" style=""></path></svg>