<svg xmlns:xlink="http://www.w3.org/1999/xlink" style="overflow: hidden; position: relative; top: -0.53334px;" xmlns="http://www.w3.org/2000/svg" width="713.2000045776367" version="1.1" height="372"><defs><path id="raphael-marker-block" d="M5,0 0,2.5 5,5z" stroke-linecap="round"></path><marker refY="2.5" refX="2.5" orient="auto" markerWidth="5" markerHeight="5" id="raphael-marker-endblock55"><use stroke="none" fill="#000" stroke-width="1.0000" transform="rotate(180 2.5 2.5) scale(1,1)" xlink:href="#raphael-marker-block"></use></marker></defs><rect stroke-width="2" style="" stroke="#000000" fill="none" ry="0" rx="0" r="0" height="29" width="232.8000030517578" y="10" x="10"></rect><rect style="" stroke="none" fill="#ffffff" ry="0" rx="0" r="0" height="19" width="222.8000030517578" y="15" x="15.000001907348633"></rect><text font-family="Andale Mono, monospace" font-size="16px" fill="#000000" stroke="none" font="10px &quot;Arial&quot;" text-anchor="middle" y="24.5" x="126.4000015258789" style="text-anchor: middle; font: 16px Andale Mono,monospace;"><tspan dy="5.5">Terasender upload start</tspan></text><rect stroke-width="2" style="" stroke="#000000" fill="none" ry="0" rx="0" r="0" height="39" width="79.5999984741211" y="49" x="10"></rect><rect style="" stroke="none" fill="#ffffff" ry="0" rx="0" r="0" height="19" width="59.599998474121094" y="59" x="20"></rect><text font-family="Andale Mono, monospace" font-size="16px" fill="#000000" stroke="none" font="10px &quot;Arial&quot;" text-anchor="middle" y="68.5" x="49.79999923706055" style="text-anchor: middle; font: 16px Andale Mono,monospace;"><tspan dy="5.5">Client</tspan></text><rect stroke-width="2" style="" stroke="#000000" fill="none" ry="0" rx="0" r="0" height="39" width="79.5999984741211" y="313" x="10"></rect><rect style="" stroke="none" fill="#ffffff" ry="0" rx="0" r="0" height="19" width="59.599998474121094" y="323" x="20"></rect><text font-family="Andale Mono, monospace" font-size="16px" fill="#000000" stroke="none" font="10px &quot;Arial&quot;" text-anchor="middle" y="332.5" x="49.79999923706055" style="text-anchor: middle; font: 16px Andale Mono,monospace;"><tspan dy="5.5">Client</tspan></text><path stroke-width="2" d="M49.79999923706055,88L49.79999923706055,313" stroke="#000000" fill="none" style=""></path><rect stroke-width="2" style="" stroke="#000000" fill="none" ry="0" rx="0" r="0" height="39" width="175.60000610351562" y="49" x="166.3999900817871"></rect><rect style="" stroke="none" fill="#ffffff" ry="0" rx="0" r="0" height="19" width="155.60000610351562" y="59" x="176.39999389648438"></rect><text font-family="Andale Mono, monospace" font-size="16px" fill="#000000" stroke="none" font="10px &quot;Arial&quot;" text-anchor="middle" y="68.5" x="254.19999313354492" style="text-anchor: middle; font: 16px Andale Mono,monospace;"><tspan dy="5.5">TerasenderDriver</tspan></text><rect stroke-width="2" style="" stroke="#000000" fill="none" ry="0" rx="0" r="0" height="39" width="175.60000610351562" y="313" x="166.3999900817871"></rect><rect style="" stroke="none" fill="#ffffff" ry="0" rx="0" r="0" height="19" width="155.60000610351562" y="323" x="176.39999389648438"></rect><text font-family="Andale Mono, monospace" font-size="16px" fill="#000000" stroke="none" font="10px &quot;Arial&quot;" text-anchor="middle" y="332.5" x="254.19999313354492" style="text-anchor: middle; font: 16px Andale Mono,monospace;"><tspan dy="5.5">TerasenderDriver</tspan></text><path stroke-width="2" d="M254.19999313354492,88L254.19999313354492,313" stroke="#000000" fill="none" style=""></path><rect stroke-width="2" style="" stroke="#000000" fill="none" ry="0" rx="0" r="0" height="39" width="175.60000610351562" y="49" x="361.99999618530273"></rect><rect style="" stroke="none" fill="#ffffff" ry="0" rx="0" r="0" height="19" width="155.60000610351562" y="59" x="372"></rect><text font-family="Andale Mono, monospace" font-size="16px" fill="#000000" stroke="none" font="10px &quot;Arial&quot;" text-anchor="middle" y="68.5" x="449.79999923706055" style="text-anchor: middle; font: 16px Andale Mono,monospace;"><tspan dy="5.5">TerasenderWorker</tspan></text><rect stroke-width="2" style="" stroke="#000000" fill="none" ry="0" rx="0" r="0" height="39" width="175.60000610351562" y="313" x="361.99999618530273"></rect><rect style="" stroke="none" fill="#ffffff" ry="0" rx="0" r="0" height="19" width="155.60000610351562" y="323" x="372"></rect><text font-family="Andale Mono, monospace" font-size="16px" fill="#000000" stroke="none" font="10px &quot;Arial&quot;" text-anchor="middle" y="332.5" x="449.79999923706055" style="text-anchor: middle; font: 16px Andale Mono,monospace;"><tspan dy="5.5">TerasenderWorker</tspan></text><path stroke-width="2" d="M449.79999923706055,88L449.79999923706055,313" stroke="#000000" fill="none" style=""></path><rect stroke-width="2" style="" stroke="#000000" fill="none" ry="0" rx="0" r="0" height="39" width="79.5999984741211" y="49" x="603.6000061035156"></rect><rect style="" stroke="none" fill="#ffffff" ry="0" rx="0" r="0" height="19" width="59.599998474121094" y="59" x="613.6000366210938"></rect><text font-family="Andale Mono, monospace" font-size="16px" fill="#000000" stroke="none" font="10px &quot;Arial&quot;" text-anchor="middle" y="68.5" x="643.4000053405762" style="text-anchor: middle; font: 16px Andale Mono,monospace;"><tspan dy="5.5">Server</tspan></text><rect stroke-width="2" style="" stroke="#000000" fill="none" ry="0" rx="0" r="0" height="39" width="79.5999984741211" y="313" x="603.6000061035156"></rect><rect style="" stroke="none" fill="#ffffff" ry="0" rx="0" r="0" height="19" width="59.599998474121094" y="323" x="613.6000366210938"></rect><text font-family="Andale Mono, monospace" font-size="16px" fill="#000000" stroke="none" font="10px &quot;Arial&quot;" text-anchor="middle" y="332.5" x="643.4000053405762" style="text-anchor: middle; font: 16px Andale Mono,monospace;"><tspan dy="5.5">Server</tspan></text><path stroke-width="2" d="M643.4000053405762,88L643.4000053405762,313" stroke="#000000" fill="none" style=""></path><rect style="" stroke="none" fill="#ffffff" ry="0" rx="0" r="0" height="19" width="520.4000244140625" y="103.5" x="86.40000915527344"></rect><text font-family="Andale Mono, monospace" font-size="16px" fill="#000000" stroke="none" font="10px &quot;Arial&quot;" text-anchor="middle" y="113" x="346.60000228881836" style="text-anchor: middle; font: 16px Andale Mono,monospace;"><tspan dy="5.5">Transfer data (files details, recipients, options ...)</tspan></text><path stroke-dasharray="0" marker-end="url(#raphael-marker-endblock55)" stroke-width="2" d="M49.79999923706055,127C49.79999923706055,127,581.072594860083,127,638.4023036651064,127" stroke="#000000" fill="none" style=""></path><rect style="" stroke="none" fill="#ffffff" ry="0" rx="0" r="0" height="19" width="318.79998779296875" y="142.5" x="187.20001220703125"></rect><text font-family="Andale Mono, monospace" font-size="16px" fill="#000000" stroke="none" font="10px &quot;Arial&quot;" text-anchor="middle" y="152" x="346.60000228881836" style="text-anchor: middle; font: 16px Andale Mono,monospace;"><tspan dy="5.5">Transfer data with generated UIDs</tspan></text><path stroke-dasharray="0" marker-end="url(#raphael-marker-endblock55)" stroke-width="2" d="M643.4000053405762,166C643.4000053405762,166,112.12740971755375,166,54.79770091253033,166" stroke="#000000" fill="none" style=""></path><rect style="" stroke="none" fill="#ffffff" ry="0" rx="0" r="0" height="19" width="184.39999389648438" y="181.5" x="59.79999923706055"></rect><text font-family="Andale Mono, monospace" font-size="16px" fill="#000000" stroke="none" font="10px &quot;Arial&quot;" text-anchor="middle" y="191" x="151.99999618530273" style="text-anchor: middle; font: 16px Andale Mono,monospace;"><tspan dy="5.5">Gives transfer data</tspan></text><path stroke-dasharray="6,2" marker-end="url(#raphael-marker-endblock55)" stroke-width="2" d="M49.79999923706055,205C49.79999923706055,205,217.8524233227581,205,249.1981391434302,205" stroke="#000000" fill="none" style=""></path><rect style="" stroke="none" fill="#ffffff" ry="0" rx="0" r="0" height="19" width="59.599998474121094" y="220.5" x="322.20001220703125"></rect><text font-family="Andale Mono, monospace" font-size="16px" fill="#000000" stroke="none" font="10px &quot;Arial&quot;" text-anchor="middle" y="230" x="351.99999618530273" style="text-anchor: middle; font: 16px Andale Mono,monospace;"><tspan dy="5.5">Spawns</tspan></text><path stroke-dasharray="6,2" marker-end="url(#raphael-marker-endblock55)" stroke-width="2" d="M254.19999313354492,244C254.19999313354492,244,414.23883234161804,244,444.7931224443312,244" stroke="#000000" fill="none" style=""></path><rect stroke-width="2" style="" stroke="#000000" fill="none" ry="0" rx="0" r="0" height="29" width="367.20001220703125" y="264" x="266.1999931335449"></rect><rect style="" stroke="none" fill="#ffffff" ry="0" rx="0" r="0" height="19" width="357.20001220703125" y="269" x="271.1999816894531"></rect><text font-family="Andale Mono, monospace" font-size="16px" fill="#000000" stroke="none" font="10px &quot;Arial&quot;" text-anchor="middle" y="278.5" x="449.79999923706055" style="text-anchor: middle; font: 16px Andale Mono,monospace;"><tspan dy="5.5">See Terasender worker process (async)</tspan></text></svg>